<?xml version="1.0" encoding="UTF-8"?>
<svg width="9.5in" height="4.125in" version="1.1" viewBox="0 0 241.3 104.78" xmlns="http://www.w3.org/2000/svg">
<g>
<g transform="matrix(.26458 0 0 .26458 -.69237 -67.057)" style="shape-inside:url(#rect6144);white-space:pre" aria-label="MusicIam">
<path d="m65.631 435.37-9.3815 47.051q-1.7904 9.0951-1.7904 14.251 0 5.3711 4.5117 8.3789-7.806 2.4349-12.175 2.4349-7.3047 0-7.3047-5.8724 0-6.5169 4.2969-23.132l15.827-61.016-2.9362-9.0235q-5.013-15.111-9.7396-18.405 6.8034-4.3685 12.103-4.3685 3.9388 0 6.7318 6.2305 2.8646 6.1589 10.384 31.51 1.5039 5.0846 2.5065 8.0208l1.2891 3.5807q10.885 31.725 18.978 31.725 8.8086 0 24.492-25.638 15.755-25.71 17.116-42.253 7.9492-2.6498 11.745-2.6498 7.0182 0 7.0182 7.7344 0 2.5781-1.6471 14.323-1.5755 10.671-2.2201 17.116l-4.9414 46.693q-0.5013 4.9414-0.5013 9.5964 0 14.251 5.8008 17.76-7.3763 5.1563-12.604 5.1563-8.5222 0-8.5222-17.689 0-7.0899 1.0742-17.331l6.2305-59.225q-8.5222 25.638-21.986 43.685-13.464 17.975-24.063 17.975-8.3073 0-16.4-12.389-8.0925-12.461-13.893-34.232z" fill="#6d1fe5"/>
<path d="m242.81 460.72q-9.8828 20.41-22.057 33.158-12.175 12.747-21.842 12.747-7.806 0-12.676-5.5143-4.8698-5.5143-4.8698-14.323 0-11.315 7.5912-41.537 2.0768-8.1641 2.0768-10.313t-1.3607-4.655l9.8828-0.0716q6.3737 0 6.3737 4.9414 0 3.0794-4.1536 17.689-1.2891 4.3685-1.6471 6.0156l-1.0742 4.3685q-3.151 13.106-3.151 19.981 0 10.599 7.3047 10.599 11.96 0 30.365-29.649 15.039-24.134 15.039-34.375 0-1.4323-0.85937-2.8646 5.8724-1.6471 9.9544-1.6471 6.3021 0 6.3021 3.8672 0 0.93099-0.57291 2.7214-0.28646 1.0742-1.3607 5.2279-0.14323 0.78777-1.4323 5.8008-0.93099 3.5091-1.3607 5.586l-0.71615 3.4375q-2.3633 11.816-2.3633 22.129 0 15.755 7.5912 15.755 16.758 0 42.539-47.266l6.0156 3.5807q-29.362 56.504-53.711 56.504-16.4 0-16.4-28.431 0-5.3711 0.57292-13.464z" fill="#6d1fe5"/>
<path d="m335.05 479.63q2.4349 5.4427 2.4349 10.384 0 10.957-9.1667 19.05-9.1667 8.1641-21.484 8.1641-7.2331 0-12.318-3.724-5.0846-3.724-5.0846-8.9518 0-5.586 6.9466-11.315 7.0182-5.7292 23.418-13.607l-5.7292-9.2383q-10.456-16.829-10.456-26.283 0-13.607 15.827-21.914 9.7396 3.724 9.7396 9.3815 0 8.0208-12.389 15.397l8.1641 15.039 6.3737 11.602q13.678-8.1641 20.625-13.965 6.9466-5.8724 17.546-18.047l5.7292 3.5091q-15.397 20.625-40.176 34.518zm-12.174 6.4453q-21.055 11.315-21.055 17.546 0 5.8724 8.5222 5.8724 6.3021 0 10.241-4.2969 3.9388-4.2253 3.9388-10.957 0-4.0104-1.6471-8.1641z" fill="#6d1fe5"/>
<path d="m440.32 446.25q-16.185 28.359-32.728 44.401-16.543 15.97-29.72 15.97-8.0208 0-12.962-5.2279-4.8698-5.2279-4.8698-13.75 0-3.2227 1.4323-10.241l1.5755-7.8776q3.5091-17.044 3.5091-23.919 0-4.082-2.4349-6.6602 9.3099-2.1484 11.673-2.1484 5.2995 0 5.2995 7.4479 0 5.5143-2.0768 15.827l-2.793 13.965q-2.0768 10.098-2.0768 13.105 0 8.8802 7.5196 8.8802 8.9518 0 23.848-15.039 14.896-15.111 28.861-38.242zm-63.737-36.094 1.0026 0.0716q4.7982-0.21484 13.75-4.7982 9.0235-4.655 14.108-9.4532-3.151 9.8828-11.172 16.543-12.175 10.169-16.471 10.169-2.8646 0-2.8646-3.5091 0-5.013 1.6471-9.0235z" fill="#6d1fe5"/>
<path d="m524.04 446.32q-17.331 29.076-36.738 45.833-19.408 16.686-36.022 16.686-13.822 0-22.415-9.4531-8.5938-9.4532-8.5938-24.564 0-19.909 14.824-34.662 14.824-14.824 34.805-14.824 8.0925 0 13.249 3.151 5.2279 3.0794 5.2279 7.8776 0 7.8776-13.392 11.816 0.71615-1.7188 0.71615-3.2943 0-11.602-12.318-11.602-10.671 0-19.694 11.96-8.9518 11.888-8.9518 26.068 0 11.53 5.944 18.835 6.0156 7.2331 15.612 7.2331 26.354 0 61.732-54.642z" fill="#6d1fe5"/>
<path d="m551.25 406.44-17.689 89.017q13.678-1.7904 19.408-1.7904 9.3099 0 9.3099 12.962-5.2279-1.7904-11.029-1.7904-5.586 0-13.678 1.0742l-16.328 2.1484q-8.737 1.2174-12.246 1.2174-6.0156 0-8.5222-2.8646-2.5065-2.8646-3.0078-10.456 5.0846 2.793 10.599 2.793 3.0078 0 10.026-1.0742l17.76-89.089q-7.7344 1.2891-13.392 1.2891-9.8828 0-9.8828-11.602 2.793 1.862 7.0182 1.862 5.1563 0 15.039-1.862l11.315-2.1484q11.816-2.1484 18.047-2.1484 9.668 0 11.172 12.962-4.0104-1.9336-8.3789-1.9336-5.5143 0-12.389 1.0026-1.0742 0.21485-3.151 0.42969z" fill="#16e999"/>
<path d="m645.57 461.08q-9.1667 18.978-22.63 32.298-13.392 13.249-23.346 13.249-7.5912 0-12.174-6.7318-4.5117-6.8034-4.5117-18.047 0-22.415 13.535-39.46 13.607-17.044 31.439-17.044 10.814 0 23.418 6.7318 1.862-6.6602 15.182-6.6602 0.85938 0 2.793 0.0716-4.082 6.2305-6.2305 17.044l-1.2174 6.0872q-2.0768 10.169-2.0768 23.776 0 15.684 7.3047 15.684 7.7344 0 21.126-12.891 13.464-12.962 26.426-32.943l5.586 3.8672q-13.249 23.633-30.293 39.46-17.044 15.755-29.29 15.755-15.469 0-15.469-25.781 0-5.3711 0.42969-14.466zm3.3659-17.116q-15.039-9.8112-24.994-9.8112-10.814 0-18.691 13.177-7.8776 13.106-7.8776 31.152 0 14.466 9.4531 14.466 10.241 0 39.173-44.974 0.35808-0.57292 2.9362-4.0104z" fill="#6d1fe5"/>
<path transform="translate(2.6169 253.45)" d="m767.7 230.26c-0.12523 0.66457-0.24263 1.2752-0.35546 1.8418-0.11284 0.56654-0.24086 1.075-0.34375 1.5625s-0.20866 1.008-0.29298 1.3867c-0.10516 0.47237-0.1982 0.86097-0.29296 1.2461-0.21984 0.89343-0.27963 1.2514-0.49805 2.168-0.17207 0.72211-0.35316 1.4535-0.54297 2.2754-0.13981 0.60537-0.27988 1.1984-0.41406 1.7773s-0.2624 1.1444-0.38086 1.6992c-0.0592 0.27742-0.11652 0.55236-0.16992 0.82422s-0.10407 0.54003-0.15039 0.80664c-0.0463 0.26661-0.089 0.5313-0.12695 0.79297-0.038 0.26166-0.0712 0.52032-0.0996 0.77734-0.0383 0.34695-0.0733 0.64392-0.10352 0.9082-0.0302 0.26429-0.0554 0.49641-0.0723 0.71876-8e-3 0.11117-0.0154 0.2198-0.0195 0.32812-4e-3 0.10832-5e-3 0.21562-4e-3 0.32617 8.2e-4 0.11056 3e-3 0.22392 0.01 0.3418 6e-3 0.11788 0.0166 0.24079 0.0293 0.37109 0.0143 0.1465 0.0305 0.28968 0.0508 0.42774 0.0202 0.13805 0.0439 0.27118 0.0703 0.40039 0.0264 0.1292 0.057 0.25504 0.0899 0.375s0.0679 0.23344 0.10742 0.34375c-0.19097-0.71616-0.28516-1.2175-0.28516-1.5039 0-2.6736 6.0382-13.344 18.117-32.012 13.32-20.482 22.559-30.723 27.715-30.723 2.1007 0 3.1524 1.0271 3.1524 3.0801 0 1.6233-0.66905 5.7769-2.0059 12.461l-2.0059 9.8828c-1.9097 9.5009-2.8633 16.4-2.8633 20.697 0 12.891 4.9414 19.336 14.824 19.336 15.469 0 33.563-20.195 54.283-60.586l-6.0156-3.3672c-19.002 34.089-33.085 51.133-42.252 51.133-4.0582 0-6.0879-2.8646-6.0879-8.5938 0-3.2465 0.66905-8.235 2.0059-14.967l2.2188-11.172c2.1484-10.933 3.2227-17.927 3.2227-20.982 0-8.4983-3.6278-12.748-10.885-12.748-6.5886 0-14.419 5.3466-23.49 16.041-9.0712 10.647-17.784 24.755-26.139 42.324z" fill="#16e999"/>
<path transform="translate(2.6169 253.45)" d="m767.06 171.82c-13.177 0-28.359 18.143-45.547 54.428l2.0059-20.482c1.1458-11.363 1.7188-17.927 1.7188-19.693 0-4.9653-2.1013-7.4473-6.3027-7.4473-2.2917 0-6.2059 1.0026-11.744 3.0078 2.3394 2.6736 3.5078 6.8743 3.5078 12.604 0 4.5356-0.28646 9.477-0.85938 14.824l-1.6465 15.254c-1.4323 13.225-2.1484 20.171-2.1484 20.84 0 5.3472 2.482 8.0215 7.4473 8.0215 2.1962 0 4.6085-0.57291 7.2344-1.7188-0.76389-0.95486-1.1465-1.9349-1.1465-2.9375 0-3.533 4.9885-14.465 14.967-32.799 10.026-18.477 17.617-27.715 22.773-27.715 2.3394 0 3.5098 1.6 3.5098 4.7988 0 2.1962-1.0987 8.7602-3.2949 19.693l-3.0078 15.182c-0.52517 2.6736-1.049 5.1801-1.5742 7.5195-1.4323 6.4931-2.1484 10.385-2.1484 11.674 0 4.2491 2.22 6.373 6.6602 6.373 1.4323 0 2.5065-0.11871 3.2227-0.35742 1.671-0.47744 2.8394-0.78842 3.5078-0.93164-0.0395-0.11031-0.0745-0.22379-0.10742-0.34375-0.0329-0.11996-0.0634-0.2458-0.0899-0.375-0.0264-0.12921-0.0501-0.26234-0.0703-0.40039-0.0202-0.13806-0.0365-0.28124-0.0508-0.42774-0.0127-0.1303-0.0229-0.25321-0.0293-0.37109-6e-3 -0.11788-9e-3 -0.23124-0.01-0.3418-8.3e-4 -0.11055-2.3e-4 -0.21785 4e-3 -0.32617 4e-3 -0.10832 0.0111-0.21695 0.0195-0.32812 0.0169-0.22235 0.0421-0.45447 0.0723-0.71876 0.0302-0.26428 0.0652-0.56125 0.10352-0.9082 0.0284-0.25702 0.0616-0.51568 0.0996-0.77734 0.038-0.26167 0.0806-0.52636 0.12695-0.79297 0.0463-0.26661 0.097-0.53478 0.15039-0.80664 0.0534-0.27186 0.11069-0.5468 0.16992-0.82422 0.11846-0.55484 0.23496-1.0383 0.36914-1.6172s0.27425-1.172 0.41406-1.7773c0.18981-0.82186 0.36752-1.5541 0.54297-2.2754 0.17545-0.72131 0.17664-0.85266 0.35742-1.625 0.0904-0.38617 0.30693-1.2406 0.40234-1.668 0.0954-0.42735 0.17837-0.80159 0.28126-1.2891s0.27388-1.2147 0.38672-1.7812c0.11283-0.56655 0.23023-1.1772 0.35546-1.8418l4.3088-21.781c2.4826-12.556 3.7246-20.624 3.7246-24.205 0-8.355-2.8891-12.533-8.666-12.533z" fill="#6d1fe5"/>
</g>
</g>
</svg>
